<svg width="40" height="40" viewBox="0 0 40 40" fill="none" xmlns="http://www.w3.org/2000/svg">
<rect width="40" height="40" rx="20" fill="#0C5DAD" fill-opacity="0.2"/>
<g clip-path="url(#clip0_47_3)">
<path d="M17.3225 19.0625H10.6775C10.2166 19.0605 9.7752 18.8766 9.44932 18.5507C9.12343 18.2248 8.93948 17.7834 8.9375 17.3225V10.6775C8.93948 10.2166 9.12343 9.7752 9.44932 9.44931C9.7752 9.12343 10.2166 8.93947 10.6775 8.9375H17.315C17.7759 8.93947 18.2173 9.12343 18.5432 9.44931C18.8691 9.7752 19.053 10.2166 19.055 10.6775V17.315C19.055 17.7759 18.873 18.2181 18.5485 18.5454C18.224 18.8727 17.7834 19.0585 17.3225 19.0625ZM10.685 10.0625C10.5219 10.0625 10.3655 10.1273 10.2501 10.2426C10.1348 10.358 10.07 10.5144 10.07 10.6775V17.315C10.07 17.4781 10.1348 17.6345 10.2501 17.7499C10.3655 17.8652 10.5219 17.93 10.685 17.93H17.3225C17.4856 17.93 17.642 17.8652 17.7574 17.7499C17.8727 17.6345 17.9375 17.4781 17.9375 17.315V10.6775C17.9375 10.5144 17.8727 10.358 17.7574 10.2426C17.642 10.1273 17.4856 10.0625 17.3225 10.0625H10.685ZM29.3225 19.0625H22.6775C22.2166 19.0605 21.7752 18.8766 21.4493 18.5507C21.1234 18.2248 20.9395 17.7834 20.9375 17.3225V10.6775C20.9395 10.2166 21.1234 9.7752 21.4493 9.44931C21.7752 9.12343 22.2166 8.93947 22.6775 8.9375H29.315C29.7759 8.93947 30.2173 9.12343 30.5432 9.44931C30.8691 9.7752 31.053 10.2166 31.055 10.6775V17.315C31.055 17.7759 30.873 18.2181 30.5485 18.5454C30.224 18.8727 29.7834 19.0585 29.3225 19.0625ZM22.685 10.0625C22.5219 10.0625 22.3655 10.1273 22.2501 10.2426C22.1348 10.358 22.07 10.5144 22.07 10.6775V17.315C22.07 17.4781 22.1348 17.6345 22.2501 17.7499C22.3655 17.8652 22.5219 17.93 22.685 17.93H29.3225C29.4856 17.93 29.642 17.8652 29.7574 17.7499C29.8727 17.6345 29.9375 17.4781 29.9375 17.315V10.6775C29.9375 10.5144 29.8727 10.358 29.7574 10.2426C29.642 10.1273 29.4856 10.0625 29.3225 10.0625H22.685ZM29.3225 31.0625H22.6775C22.2166 31.0605 21.7752 30.8766 21.4493 30.5507C21.1234 30.2248 20.9395 29.7834 20.9375 29.3225V22.6775C20.9395 22.2166 21.1234 21.7752 21.4493 21.4493C21.7752 21.1234 22.2166 20.9395 22.6775 20.9375H29.315C29.7759 20.9395 30.2173 21.1234 30.5432 21.4493C30.8691 21.7752 31.053 22.2166 31.055 22.6775V29.315C31.055 29.7759 30.873 30.2181 30.5485 30.5454C30.224 30.8727 29.7834 31.0585 29.3225 31.0625ZM22.685 22.0625C22.5219 22.0625 22.3655 22.1273 22.2501 22.2426C22.1348 22.358 22.07 22.5144 22.07 22.6775V29.315C22.07 29.4781 22.1348 29.6345 22.2501 29.7499C22.3655 29.8652 22.5219 29.93 22.685 29.93H29.3225C29.4856 29.93 29.642 29.8652 29.7574 29.7499C29.8727 29.6345 29.9375 29.4781 29.9375 29.315V22.6775C29.9375 22.5144 29.8727 22.358 29.7574 22.2426C29.642 22.1273 29.4856 22.0625 29.3225 22.0625H22.685ZM14 31.0625C12.9987 31.0625 12.02 30.7656 11.1874 30.2093C10.3549 29.653 9.70603 28.8624 9.32286 27.9373C8.93969 27.0123 8.83944 25.9944 9.03478 25.0124C9.23011 24.0303 9.71227 23.1283 10.4203 22.4203C11.1283 21.7123 12.0303 21.2301 13.0124 21.0348C13.9944 20.8394 15.0123 20.9397 15.9373 21.3229C16.8624 21.706 17.653 22.3549 18.2093 23.1874C18.7656 24.0199 19.0625 24.9987 19.0625 26C19.0605 27.342 18.5265 28.6286 17.5775 29.5775C16.6286 30.5265 15.3421 31.0605 14 31.0625ZM14 22.0625C13.2212 22.0625 12.46 22.2934 11.8124 22.7261C11.1649 23.1587 10.6602 23.7737 10.3622 24.4932C10.0642 25.2127 9.98623 26.0044 10.1382 26.7682C10.2901 27.532 10.6651 28.2336 11.2158 28.7842C11.7664 29.3349 12.468 29.7099 13.2318 29.8618C13.9956 30.0138 14.7873 29.9358 15.5068 29.6378C16.2263 29.3398 16.8413 28.8351 17.2739 28.1876C17.7066 27.54 17.9375 26.7788 17.9375 26C17.9355 24.9563 17.52 23.956 16.782 23.218C16.0441 22.48 15.0437 22.0645 14 22.0625Z" fill="#0C5DAD"/>
<path d="M17.3225 9.5H10.6775C10.0272 9.5 9.5 10.0272 9.5 10.6775V17.3225C9.5 17.9728 10.0272 18.5 10.6775 18.5H17.3225C17.9728 18.5 18.5 17.9728 18.5 17.3225V10.6775C18.5 10.0272 17.9728 9.5 17.3225 9.5Z" fill="#0C5DAD"/>
<path d="M29.3225 9.5H22.6775C22.0272 9.5 21.5 10.0272 21.5 10.6775V17.3225C21.5 17.9728 22.0272 18.5 22.6775 18.5H29.3225C29.9728 18.5 30.5 17.9728 30.5 17.3225V10.6775C30.5 10.0272 29.9728 9.5 29.3225 9.5Z" fill="#0C5DAD"/>
<path d="M29.3225 21.5H22.6775C22.0272 21.5 21.5 22.0272 21.5 22.6775V29.3225C21.5 29.9728 22.0272 30.5 22.6775 30.5H29.3225C29.9728 30.5 30.5 29.9728 30.5 29.3225V22.6775C30.5 22.0272 29.9728 21.5 29.3225 21.5Z" fill="#0C5DAD"/>
<path d="M18.5 26C18.5 23.5147 16.4853 21.5 14 21.5C11.5147 21.5 9.5 23.5147 9.5 26C9.5 28.4853 11.5147 30.5 14 30.5C16.4853 30.5 18.5 28.4853 18.5 26Z" fill="#0C5DAD"/>
</g>
<defs>
<clipPath id="clip0_47_3">
<rect width="24" height="24" fill="white" transform="translate(8 8)"/>
</clipPath>
</defs>
</svg>
