<svg width="80" height="80" viewBox="0 0 80 80" fill="none" xmlns="http://www.w3.org/2000/svg">
<rect width="80" height="80" rx="20" fill="#F2C94C" fill-opacity="0.2"/>
<g clip-path="url(#clip0_6_101)">
<path d="M38.5 49H35.5C35.3674 49 35.2402 49.0527 35.1464 49.1464C35.0527 49.2402 35 49.3674 35 49.5V52.5C35 52.6326 35.0527 52.7598 35.1464 52.8536C35.2402 52.9473 35.3674 53 35.5 53H38.5C38.6326 53 38.7598 52.9473 38.8536 52.8536C38.9473 52.7598 39 52.6326 39 52.5V49.5C39 49.3674 38.9473 49.2402 38.8536 49.1464C38.7598 49.0527 38.6326 49 38.5 49ZM38 52H36V50H38V52ZM48 52.653C48.0392 52.7312 48.0983 52.7978 48.1713 52.8461C48.2443 52.8943 48.3287 52.9226 48.416 52.928H48.447C48.5293 52.928 48.6104 52.9076 48.683 52.8687C48.7555 52.8298 48.8174 52.7736 48.863 52.705L50.863 49.705C50.8994 49.6504 50.9248 49.5891 50.9375 49.5247C50.9503 49.4603 50.9502 49.394 50.9374 49.3296C50.9245 49.2652 50.8991 49.2039 50.8626 49.1494C50.826 49.0948 50.7791 49.0479 50.7245 49.0115C50.6699 48.9751 50.6086 48.9497 50.5442 48.937C50.4798 48.9242 50.4135 48.9243 50.3491 48.9371C50.2847 48.95 50.2234 48.9754 50.1689 49.0119C50.1143 49.0485 50.0674 49.0954 50.031 49.15L48.509 51.433L47.9 50.206C47.8407 50.0873 47.7367 49.997 47.6109 49.955C47.4851 49.913 47.3477 49.9227 47.229 49.982C47.1103 50.0413 47.02 50.1453 46.978 50.2711C46.936 50.3969 46.9457 50.5343 47.005 50.653L48 52.653ZM47.5 47H50.5C50.6326 47 50.7598 46.9473 50.8536 46.8536C50.9473 46.7598 51 46.6326 51 46.5V43.5C51 43.3674 50.9473 43.2402 50.8536 43.1464C50.7598 43.0527 50.6326 43 50.5 43H47.5C47.3674 43 47.2402 43.0527 47.1464 43.1464C47.0527 43.2402 47 43.3674 47 43.5V46.5C47 46.6326 47.0527 46.7598 47.1464 46.8536C47.2402 46.9473 47.3674 47 47.5 47ZM48 44H50V46H48V44ZM47.5 41H50.5C50.6326 41 50.7598 40.9473 50.8536 40.8536C50.9473 40.7598 51 40.6326 51 40.5V37.5C51 37.3674 50.9473 37.2402 50.8536 37.1464C50.7598 37.0527 50.6326 37 50.5 37H47.5C47.3674 37 47.2402 37.0527 47.1464 37.1464C47.0527 37.2402 47 37.3674 47 37.5V40.5C47 40.6326 47.0527 40.7598 47.1464 40.8536C47.2402 40.9473 47.3674 41 47.5 41ZM48 38H50V40H48V38ZM29.5 47H32.5C32.6326 47 32.7598 46.9473 32.8536 46.8536C32.9473 46.7598 33 46.6326 33 46.5V43.5C33 43.3674 32.9473 43.2402 32.8536 43.1464C32.7598 43.0527 32.6326 43 32.5 43H29.5C29.3674 43 29.2402 43.0527 29.1464 43.1464C29.0527 43.2402 29 43.3674 29 43.5V46.5C29 46.6326 29.0527 46.7598 29.1464 46.8536C29.2402 46.9473 29.3674 47 29.5 47ZM30 44H32V46H30V44ZM29.5 53H32.5C32.6326 53 32.7598 52.9473 32.8536 52.8536C32.9473 52.7598 33 52.6326 33 52.5V49.5C33 49.3674 32.9473 49.2402 32.8536 49.1464C32.7598 49.0527 32.6326 49 32.5 49H29.5C29.3674 49 29.2402 49.0527 29.1464 49.1464C29.0527 49.2402 29 49.3674 29 49.5V52.5C29 52.6326 29.0527 52.7598 29.1464 52.8536C29.2402 52.9473 29.3674 53 29.5 53ZM30 50H32V52H30V50ZM29.5 41H32.5C32.6326 41 32.7598 40.9473 32.8536 40.8536C32.9473 40.7598 33 40.6326 33 40.5V37.5C33 37.3674 32.9473 37.2402 32.8536 37.1464C32.7598 37.0527 32.6326 37 32.5 37H29.5C29.3674 37 29.2402 37.0527 29.1464 37.1464C29.0527 37.2402 29 37.3674 29 37.5V40.5C29 40.6326 29.0527 40.7598 29.1464 40.8536C29.2402 40.9473 29.3674 41 29.5 41ZM30 38H32V40H30V38ZM51.5 28H51V26C51 25.4696 50.7893 24.9609 50.4142 24.5858C50.0391 24.2107 49.5304 24 49 24C48.4696 24 47.9609 24.2107 47.5858 24.5858C47.2107 24.9609 47 25.4696 47 26V28H33V26C33 25.4696 32.7893 24.9609 32.4142 24.5858C32.0391 24.2107 31.5304 24 31 24C30.4696 24 29.9609 24.2107 29.5858 24.5858C29.2107 24.9609 29 25.4696 29 26V28H28.5C27.837 28 27.2011 28.2634 26.7322 28.7322C26.2634 29.2011 26 29.837 26 30.5V53.5C26 54.163 26.2634 54.7989 26.7322 55.2678C27.2011 55.7366 27.837 56 28.5 56H51.5C52.163 56 52.7989 55.7366 53.2678 55.2678C53.7366 54.7989 54 54.163 54 53.5V30.5C54 29.837 53.7366 29.2011 53.2678 28.7322C52.7989 28.2634 52.163 28 51.5 28ZM48 26C48 25.7348 48.1054 25.4804 48.2929 25.2929C48.4804 25.1054 48.7348 25 49 25C49.2652 25 49.5196 25.1054 49.7071 25.2929C49.8946 25.4804 50 25.7348 50 26V30C50 30.2652 49.8946 30.5196 49.7071 30.7071C49.5196 30.8946 49.2652 31 49 31C48.7348 31 48.4804 30.8946 48.2929 30.7071C48.1054 30.5196 48 30.2652 48 30V26ZM30 26C30 25.7348 30.1054 25.4804 30.2929 25.2929C30.4804 25.1054 30.7348 25 31 25C31.2652 25 31.5196 25.1054 31.7071 25.2929C31.8946 25.4804 32 25.7348 32 26V30C32 30.2652 31.8946 30.5196 31.7071 30.7071C31.5196 30.8946 31.2652 31 31 31C30.7348 31 30.4804 30.8946 30.2929 30.7071C30.1054 30.5196 30 30.2652 30 30V26ZM53 53.5C53 53.8978 52.842 54.2794 52.5607 54.5607C52.2794 54.842 51.8978 55 51.5 55H28.5C28.1022 55 27.7206 54.842 27.4393 54.5607C27.158 54.2794 27 53.8978 27 53.5V35H53V53.5ZM53 34H27V30.5C27 30.1022 27.158 29.7206 27.4393 29.4393C27.7206 29.158 28.1022 29 28.5 29H29V30C29 30.5304 29.2107 31.0391 29.5858 31.4142C29.9609 31.7893 30.4696 32 31 32C31.5304 32 32.0391 31.7893 32.4142 31.4142C32.7893 31.0391 33 30.5304 33 30V29H47V30C47 30.5304 47.2107 31.0391 47.5858 31.4142C47.9609 31.7893 48.4696 32 49 32C49.5304 32 50.0391 31.7893 50.4142 31.4142C50.7893 31.0391 51 30.5304 51 30V29H51.5C51.8978 29 52.2794 29.158 52.5607 29.4393C52.842 29.7206 53 30.1022 53 30.5V34ZM36 40.653C36.0392 40.7312 36.0983 40.7978 36.1713 40.8461C36.2443 40.8943 36.3287 40.9226 36.416 40.928H36.447C36.5293 40.928 36.6104 40.9076 36.683 40.8687C36.7555 40.8298 36.8174 40.7736 36.863 40.705L38.863 37.705C38.8994 37.6504 38.9248 37.5891 38.9375 37.5247C38.9503 37.4603 38.9502 37.394 38.9374 37.3296C38.9245 37.2652 38.8991 37.2039 38.8626 37.1494C38.826 37.0948 38.7791 37.0479 38.7245 37.0115C38.6699 36.9751 38.6086 36.9497 38.5442 36.937C38.4798 36.9242 38.4135 36.9243 38.3491 36.9371C38.2847 36.95 38.2234 36.9754 38.1689 37.0119C38.1143 37.0485 38.0674 37.0954 38.031 37.15L36.509 39.433L35.9 38.206C35.8706 38.1472 35.83 38.0948 35.7804 38.0518C35.7308 38.0087 35.6732 37.9758 35.6109 37.955C35.5486 37.9342 35.4828 37.9259 35.4173 37.9305C35.3517 37.9352 35.2878 37.9527 35.229 37.982C35.1702 38.0114 35.1178 38.052 35.0748 38.1016C35.0317 38.1512 34.9988 38.2088 34.978 38.2711C34.9572 38.3334 34.9489 38.3992 34.9535 38.4647C34.9582 38.5303 34.9756 38.5942 35.005 38.653L36 40.653ZM41.5 41H44.5C44.6326 41 44.7598 40.9473 44.8536 40.8536C44.9473 40.7598 45 40.6326 45 40.5V37.5C45 37.3674 44.9473 37.2402 44.8536 37.1464C44.7598 37.0527 44.6326 37 44.5 37H41.5C41.3674 37 41.2402 37.0527 41.1464 37.1464C41.0527 37.2402 41 37.3674 41 37.5V40.5C41 40.6326 41.0527 40.7598 41.1464 40.8536C41.2402 40.9473 41.3674 41 41.5 41ZM42 38H44V40H42V38ZM41.5 53H44.5C44.6326 53 44.7598 52.9473 44.8536 52.8536C44.9473 52.7598 45 52.6326 45 52.5V49.5C45 49.3674 44.9473 49.2402 44.8536 49.1464C44.7598 49.0527 44.6326 49 44.5 49H41.5C41.3674 49 41.2402 49.0527 41.1464 49.1464C41.0527 49.2402 41 49.3674 41 49.5V52.5C41 52.6326 41.0527 52.7598 41.1464 52.8536C41.2402 52.9473 41.3674 53 41.5 53ZM42 50H44V52H42V50ZM41.5 47H44.5C44.6326 47 44.7598 46.9473 44.8536 46.8536C44.9473 46.7598 45 46.6326 45 46.5V43.5C45 43.3674 44.9473 43.2402 44.8536 43.1464C44.7598 43.0527 44.6326 43 44.5 43H41.5C41.3674 43 41.2402 43.0527 41.1464 43.1464C41.0527 43.2402 41 43.3674 41 43.5V46.5C41 46.6326 41.0527 46.7598 41.1464 46.8536C41.2402 46.9473 41.3674 47 41.5 47ZM42 44H44V46H42V44ZM38.5 43H35.5C35.3674 43 35.2402 43.0527 35.1464 43.1464C35.0527 43.2402 35 43.3674 35 43.5V46.5C35 46.6326 35.0527 46.7598 35.1464 46.8536C35.2402 46.9473 35.3674 47 35.5 47H38.5C38.6326 47 38.7598 46.9473 38.8536 46.8536C38.9473 46.7598 39 46.6326 39 46.5V43.5C39 43.3674 38.9473 43.2402 38.8536 43.1464C38.7598 43.0527 38.6326 43 38.5 43ZM38 46H36V44H38V46Z" fill="#F2C94C"/>
</g>
<defs>
<clipPath id="clip0_6_101">
<rect width="32" height="32" fill="white" transform="translate(24 24)"/>
</clipPath>
</defs>
</svg>
