<svg width="80" height="80" viewBox="0 0 80 80" fill="none" xmlns="http://www.w3.org/2000/svg">
<rect width="80" height="80" rx="20" fill="#B353FF" fill-opacity="0.2"/>
<path d="M47.892 37.1479L38.924 46.0719L37.43 50.5559L41.914 49.0619L50.882 40.0939L47.892 37.1479Z" fill="#B353FF"/>
<path d="M47.876 37.132L49.756 35.252C49.8344 35.1729 49.9278 35.1102 50.0306 35.0674C50.1334 35.0246 50.2436 35.0026 50.355 35.0026C50.4664 35.0026 50.5766 35.0246 50.6794 35.0674C50.7822 35.1102 50.8755 35.1729 50.954 35.252L52.74 37.038C52.8187 37.1164 52.8812 37.2096 52.9238 37.3122C52.9665 37.4148 52.9884 37.5249 52.9884 37.636C52.9884 37.7471 52.9665 37.8571 52.9238 37.9597C52.8812 38.0624 52.8187 38.1556 52.74 38.234L50.86 40.114" fill="#B353FF"/>
<path d="M46.52 42.276H35.392H46.52ZM46.52 46.726H35.392H46.52Z" fill="#B353FF"/>
<path d="M47.99 55H27V27H41.034L41.024 32.996H47.988M41.288 26.666L47.274 32.716" stroke="#B353FF"/>
<path d="M47.892 37.1479L38.924 46.0719L37.43 50.5559L41.914 49.0619L50.882 40.0939L47.892 37.1479Z" stroke="#B353FF"/>
<path d="M47.876 37.132L49.756 35.252C49.8344 35.1729 49.9278 35.1102 50.0306 35.0674C50.1334 35.0246 50.2436 35.0026 50.355 35.0026C50.4664 35.0026 50.5766 35.0246 50.6794 35.0674C50.7822 35.1102 50.8755 35.1729 50.954 35.252L52.74 37.038C52.8187 37.1164 52.8812 37.2096 52.9238 37.3122C52.9665 37.4148 52.9884 37.5249 52.9884 37.636C52.9884 37.7471 52.9665 37.8571 52.9238 37.9597C52.8812 38.0624 52.8187 38.1556 52.74 38.234L50.86 40.114" stroke="#B353FF"/>
<path d="M39.08 45.642L42.3 48.86M46.99 54.94V48M29.99 39H41.99M29.99 43H37.99M29.99 47H35.99M29.99 51H34" stroke="#B353FF"/>
</svg>
