<svg width="80" height="80" viewBox="0 0 80 80" fill="none" xmlns="http://www.w3.org/2000/svg">
<rect width="80" height="80" rx="20" fill="#F2994A" fill-opacity="0.2"/>
<g clip-path="url(#clip0_6_94)">
<path fill-rule="evenodd" clip-rule="evenodd" d="M32.17 40.7903C32.2613 40.7617 32.4067 40.721 32.5517 40.704C33.6567 40.5733 34.5563 41.1033 35.255 41.7843C35.4527 41.977 35.7693 41.973 35.962 41.7753C36.1547 41.578 36.1507 41.261 35.953 41.0683C35.048 40.186 33.8657 39.5413 32.4343 39.711C31.6613 39.8023 31.3203 40.092 31.1987 40.3613C31.0637 40.6607 31.1287 41.0747 31.457 41.5323C31.7533 41.9457 32.2737 42.454 32.7573 43.015C33.1743 43.4983 33.5723 44.0197 33.695 44.5613C34.102 46.359 34.1387 48.028 36.3653 50.699C37.4227 51.967 37.6243 53.7817 37.652 54.8587C37.659 55.1343 37.8887 55.3527 38.1647 55.3457C38.4407 55.3383 38.6587 55.1087 38.6517 54.833C38.62 53.594 38.35 51.5177 37.1337 50.0587C35.0623 47.5743 35.049 46.0123 34.6703 44.3407C34.4217 43.2433 33.3207 42.1657 32.5913 41.3423C32.44 41.1717 32.3083 41.014 32.2153 40.8703C32.2 40.8463 32.184 40.8173 32.17 40.7903ZM46.5627 54.823C46.5403 53.489 46.611 51.0617 47.4167 49.8523C48.999 47.4783 48.8707 44.4293 48.8707 44.4293C48.8587 44.1537 48.625 43.9397 48.3493 43.9513C48.0737 43.9633 47.8597 44.197 47.8717 44.4727C47.8717 44.4727 47.992 47.186 46.5847 49.298C45.684 50.649 45.538 53.349 45.5627 54.8397C45.5673 55.1157 45.795 55.336 46.071 55.3313C46.347 55.3267 46.5673 55.099 46.5627 54.823ZM40.6207 44.542V31.8307C40.6207 30.7957 39.7803 29.9553 38.7453 29.9553C37.71 29.9553 36.8697 30.7957 36.8697 31.8307V44.542C36.8697 44.818 37.0937 45.042 37.3697 45.042C37.6457 45.042 37.8697 44.818 37.8697 44.542V31.8307C37.8697 31.3477 38.262 30.9553 38.7453 30.9553C39.2283 30.9553 39.6207 31.3477 39.6207 31.8307V44.542C39.6207 44.818 39.8447 45.042 40.1207 45.042C40.3967 45.042 40.6207 44.818 40.6207 44.542ZM43.3717 44.542V36.903C43.3717 35.868 42.5313 35.0277 41.4963 35.0277C41.2203 35.0277 40.9963 35.2517 40.9963 35.5277C40.9963 35.8037 41.2203 36.0277 41.4963 36.0277C41.9793 36.0277 42.3717 36.42 42.3717 36.903V44.542C42.3717 44.818 42.5957 45.042 42.8717 45.042C43.1477 45.042 43.3717 44.818 43.3717 44.542ZM46.1227 44.542V38.8343C46.1227 37.7993 45.2823 36.959 44.247 36.959C43.9713 36.959 43.747 37.183 43.747 37.459C43.747 37.735 43.9713 37.959 44.247 37.959C44.7303 37.959 45.1227 38.3513 45.1227 38.8343V44.542C45.1227 44.818 45.3467 45.042 45.6227 45.042C45.8987 45.042 46.1227 44.818 46.1227 44.542Z" fill="#F2994A"/>
<path fill-rule="evenodd" clip-rule="evenodd" d="M48.8553 44.5444L48.8737 40.566C48.8737 39.531 48.0333 38.6907 46.998 38.6907C46.722 38.6907 46.498 38.9147 46.498 39.1907C46.498 39.4667 46.722 39.6907 46.998 39.6907C47.481 39.6907 47.8733 40.0827 47.8737 40.5657L47.8553 44.5397C47.854 44.8157 48.077 45.0407 48.353 45.042C48.629 45.0434 48.854 44.8204 48.8553 44.5444ZM38.2453 25.1544V27.336C38.2453 27.612 38.4693 27.836 38.7453 27.836C39.0213 27.836 39.2453 27.612 39.2453 27.336V25.1544C39.2453 24.8784 39.0213 24.6544 38.7453 24.6544C38.4693 24.6544 38.2453 24.8784 38.2453 25.1544ZM32.5347 31.8647H34.7163C34.9923 31.8647 35.2163 31.6407 35.2163 31.3647C35.2163 31.0887 34.9923 30.8647 34.7163 30.8647H32.5347C32.2587 30.8647 32.0347 31.0887 32.0347 31.3647C32.0347 31.6407 32.2587 31.8647 32.5347 31.8647ZM42.774 31.8647H44.9557C45.2317 31.8647 45.4557 31.6407 45.4557 31.3647C45.4557 31.0887 45.2317 30.8647 44.9557 30.8647H42.774C42.498 30.8647 42.274 31.0887 42.274 31.3647C42.274 31.6407 42.498 31.8647 42.774 31.8647ZM34.0003 27.3267L35.543 28.8694C35.738 29.0647 36.0547 29.0647 36.25 28.8694C36.445 28.6744 36.445 28.3577 36.25 28.1624L34.7073 26.6197C34.512 26.4247 34.1953 26.4247 34.0003 26.6197C33.805 26.815 33.805 27.1317 34.0003 27.3267ZM42.7833 26.6197L41.2407 28.1624C41.0453 28.3577 41.0453 28.6744 41.2407 28.8694C41.4357 29.0647 41.7523 29.0647 41.9477 28.8694L43.4903 27.3267C43.6853 27.1317 43.6853 26.815 43.4903 26.6197C43.295 26.4247 42.9783 26.4247 42.7833 26.6197Z" fill="#F2994A"/>
</g>
<defs>
<clipPath id="clip0_6_94">
<rect width="32" height="32" fill="white" transform="translate(24 24)"/>
</clipPath>
</defs>
</svg>
