<svg width="80" height="80" viewBox="0 0 80 80" fill="none" xmlns="http://www.w3.org/2000/svg">
<rect width="80" height="80" rx="20" fill="#2F80ED" fill-opacity="0.2"/>
<g clip-path="url(#clip0_6_95)">
<path d="M46.6667 49.3334H33.3333C28.1867 49.3334 24 45.1467 24 40C24 34.8534 28.1867 30.6667 33.3333 30.6667H46.6667C51.8133 30.6667 56 34.8534 56 40C56 45.1467 51.8133 49.3334 46.6667 49.3334ZM33.3333 33.3334C29.6573 33.3334 26.6667 36.324 26.6667 40C26.6667 43.676 29.6573 46.6667 33.3333 46.6667H46.6667C50.3427 46.6667 53.3333 43.676 53.3333 40C53.3333 36.324 50.3427 33.3334 46.6667 33.3334H33.3333Z" fill="#2F80ED"/>
<path d="M33.3333 44C35.5425 44 37.3333 42.2091 37.3333 40C37.3333 37.7909 35.5425 36 33.3333 36C31.1242 36 29.3333 37.7909 29.3333 40C29.3333 42.2091 31.1242 44 33.3333 44Z" fill="#2F80ED"/>
</g>
<defs>
<clipPath id="clip0_6_95">
<rect width="32" height="32" fill="white" transform="translate(24 24)"/>
</clipPath>
</defs>
</svg>
